<?xml version="1.0" standalone="no"?>
<!DOCTYPE svg PUBLIC "-//W3C//DTD SVG 20010904//EN"
 "http://www.w3.org/TR/2001/REC-SVG-20010904/DTD/svg10.dtd">
<svg version="1.0" xmlns="http://www.w3.org/2000/svg"
 width="500.000000pt" height="500.000000pt" viewBox="0 0 500.000000 500.000000"
 preserveAspectRatio="xMidYMid meet">

<g transform="translate(0.000000,500.000000) scale(0.100000,-0.100000)"
fill="#000000" stroke="none">
<path d="M0 2500 l0 -2500 2500 0 2500 0 0 2500 0 2500 -2500 0 -2500 0 0
-2500z m1453 615 c64 -38 117 -73 117 -76 0 -9 -239 -151 -249 -147 -20 8
-240 144 -240 148 0 9 234 149 245 147 6 -1 63 -33 127 -72z m-267 -401 c60
-37 115 -71 122 -77 12 -9 -46 -49 -205 -142 l-32 -19 -120 73 c-67 40 -121
76 -121 80 0 7 229 150 241 151 4 0 56 -30 115 -66z m484 14 c47 -28 102 -63
123 -76 l39 -23 -121 -75 c-67 -41 -124 -74 -128 -74 -8 0 -119 65 -201 118
l-54 34 119 73 c65 41 122 74 128 74 5 1 48 -22 95 -51z m657 -75 c9 -24 -33
-56 -58 -43 -24 13 -25 56 -2 69 20 11 51 -2 60 -26z m1194 11 c9 -11 10 -20
2 -32 -15 -24 -44 -27 -59 -7 -28 38 27 75 57 39z m-1303 -31 l3 -33 -60 0
-61 0 0 -145 0 -145 -40 0 -40 0 0 145 0 145 -60 0 c-59 0 -60 0 -60 28 0 16
3 32 7 36 4 3 75 5 157 4 l151 -3 3 -32z m1002 -118 l0 -145 95 0 95 0 0 -30
0 -30 -130 0 -130 0 0 175 0 175 35 0 35 0 0 -145z m-900 -70 l0 -135 -35 0
-35 0 0 128 c0 71 3 132 7 135 3 4 19 7 35 7 l28 0 0 -135z m125 125 c4 -7 12
-7 25 0 30 16 76 12 101 -9 23 -18 25 -18 43 -3 12 11 35 17 68 17 42 0 53 -4
74 -28 22 -26 24 -37 24 -133 l0 -104 -35 0 -35 0 0 95 c0 86 -2 95 -21 106
-16 8 -28 8 -45 0 -23 -10 -24 -15 -24 -106 l0 -95 -40 0 -40 0 0 95 c0 86 -2
95 -21 106 -16 8 -28 8 -45 0 -23 -10 -24 -15 -24 -106 l0 -95 -35 0 -35 0 0
135 0 135 29 0 c17 0 33 -5 36 -10z m571 -6 c38 -18 74 -76 74 -119 l0 -25
-95 0 c-52 0 -95 -3 -95 -7 1 -34 57 -57 101 -41 26 9 34 8 51 -10 l20 -20
-26 -17 c-36 -24 -114 -24 -156 1 -91 53 -89 178 3 234 39 24 78 25 123 4z
m783 -19 c24 -23 26 -33 29 -130 l4 -105 -36 0 -36 0 0 89 c0 68 -4 93 -16
105 -18 18 -47 20 -75 6 -17 -9 -19 -22 -19 -105 l0 -95 -35 0 -35 0 0 130 0
130 35 0 c19 0 35 -4 35 -9 0 -6 12 -3 28 5 36 20 90 11 121 -21z m274 13 c27
-14 57 -69 57 -105 l0 -33 -95 0 c-52 0 -95 -4 -95 -9 0 -15 51 -51 72 -51 11
0 28 5 39 11 16 8 25 7 40 -7 26 -23 24 -30 -12 -43 -80 -28 -162 -1 -193 63
-20 42 -20 67 -2 109 31 75 115 104 189 65z m-553 -118 l0 -130 -30 0 -30 0 0
130 0 130 30 0 30 0 0 -130z"/>
<path d="M2915 2500 c-10 -11 -16 -23 -13 -26 3 -3 32 -4 64 -2 l59 3 -22 23
c-28 27 -64 28 -88 2z"/>
<path d="M3957 2502 c-9 -10 -17 -22 -17 -25 0 -4 30 -7 66 -7 l66 0 -14 23
c-20 30 -78 35 -101 9z"/>
</g>
</svg>
